<?xml version="1.0" standalone="no"?>
<!DOCTYPE svg PUBLIC "-//W3C//DTD SVG 20010904//EN"
 "http://www.w3.org/TR/2001/REC-SVG-20010904/DTD/svg10.dtd">
<svg version="1.0" xmlns="http://www.w3.org/2000/svg"
 width="276.000000pt" height="276.000000pt" viewBox="0 0 276.000000 276.000000"
 preserveAspectRatio="xMidYMid meet">
<metadata>
Created by potrace 1.11, written by Peter Selinger 2001-2013
</metadata>
<g transform="translate(0.000000,276.000000) scale(0.100000,-0.100000)"
fill="#000000" stroke="none">
<path d="M1420 1760 l0 -620 90 0 90 0 -2 618 -3 617 -35 -2 c-19 -2 -51 -4
-70 -6 -19 -2 -43 0 -52 5 -17 8 -18 -24 -18 -612z"/>
<path d="M1220 1635 l0 -495 90 0 90 0 0 490 0 490 -22 1 c-13 0 -32 2 -43 4
-11 2 -23 -1 -27 -8 -6 -9 -8 -8 -8 3 0 13 -1 13 -10 0 -8 -12 -11 -13 -19 -1
-7 11 -9 11 -14 0 -4 -10 -6 -10 -6 -1 -1 6 -8 12 -16 12 -13 0 -15 -62 -15
-495z"/>
<path d="M1098 1942 l-78 -3 0 -399 0 -400 90 0 90 0 0 403 c0 317 -3 403 -12
403 -7 -1 -48 -2 -90 -4z"/>
<path d="M1757 1018 c-42 -23 1 -81 44 -58 25 14 22 50 -7 60 -11 5 -28 4 -37
-2z"/>
<path d="M810 860 l0 -160 29 0 c17 0 33 5 36 10 4 7 12 7 25 0 10 -5 35 -10
54 -10 30 0 40 6 56 33 13 20 20 50 20 80 0 91 -51 143 -111 113 l-29 -14 0
54 0 54 -40 0 -40 0 0 -160z m134 -6 c20 -51 -8 -110 -39 -84 -15 12 -21 81
-8 93 12 13 41 7 47 -9z"/>
<path d="M1110 860 l0 -160 29 0 c17 0 33 5 36 10 4 7 12 7 25 0 10 -5 35 -10
54 -10 30 0 40 6 56 33 13 20 20 50 20 80 0 91 -51 143 -111 113 l-29 -14 0
54 0 54 -40 0 -40 0 0 -160z m134 -6 c20 -51 -8 -110 -39 -84 -15 12 -21 81
-8 93 12 13 41 7 47 -9z"/>
<path d="M1920 860 l0 -160 40 0 40 0 0 160 0 160 -40 0 -40 0 0 -160z"/>
<path d="M2116 951 c-9 -16 -22 -31 -31 -34 -19 -8 -20 -47 0 -47 12 0 15 -14
15 -64 0 -83 19 -109 78 -108 53 1 62 7 62 40 0 24 -4 28 -27 27 -27 0 -28 3
-31 53 l-3 52 30 0 c28 0 31 3 31 30 0 27 -3 30 -30 30 -25 0 -30 4 -30 25 0
37 -44 35 -64 -4z"/>
<path d="M573 929 c-47 -13 -73 -56 -73 -119 0 -45 4 -56 31 -81 27 -25 39
-29 89 -29 77 0 90 6 90 41 0 27 -2 29 -27 23 -44 -12 -84 -8 -94 7 -7 11 4
15 61 17 l70 3 0 34 c0 82 -63 127 -147 104z m67 -64 c11 -13 7 -15 -25 -15
-32 0 -36 2 -25 15 7 8 18 15 25 15 7 0 18 -7 25 -15z"/>
<path d="M2379 933 c-34 -5 -61 -35 -61 -68 0 -32 16 -52 64 -76 21 -11 38
-22 38 -26 0 -3 -25 -3 -55 0 l-55 6 0 -29 c0 -33 18 -42 85 -42 53 0 83 15
95 48 13 34 -3 71 -41 92 -65 36 -68 44 -17 37 42 -5 47 -4 53 16 8 23 -7 39
-37 39 -9 0 -22 2 -30 3 -7 2 -25 2 -39 0z"/>
<path d="M70 918 c0 -7 13 -58 29 -113 l28 -100 43 0 44 0 13 55 c22 88 24 89
42 15 l16 -70 45 -3 45 -3 28 105 c15 57 27 109 27 115 0 6 -16 11 -35 11 -32
0 -35 -3 -45 -42 -24 -95 -25 -95 -39 -24 l-13 67 -47 -3 -46 -3 -16 -69 -15
-69 -14 71 -13 72 -39 0 c-24 0 -38 -5 -38 -12z"/>
<path d="M1420 835 c0 -82 3 -98 20 -115 23 -23 79 -27 111 -7 17 10 23 10 26
0 3 -7 18 -13 34 -13 l29 0 0 115 0 115 -40 0 -40 0 0 -74 c0 -77 -13 -104
-45 -92 -12 4 -15 23 -15 86 l0 80 -40 0 -40 0 0 -95z"/>
<path d="M1740 815 l0 -115 40 0 40 0 0 115 0 115 -40 0 -40 0 0 -115z"/>
<path d="M820 520 c0 -60 4 -100 10 -100 6 0 10 40 10 100 0 60 -4 100 -10
100 -6 0 -10 -40 -10 -100z"/>
<path d="M1740 594 c0 -8 5 -12 10 -9 6 3 10 10 10 16 0 5 -4 9 -10 9 -5 0
-10 -7 -10 -16z"/>
<path d="M1444 573 c-13 -21 -3 -128 13 -144 6 -6 21 -9 34 -6 l24 4 -22 8
c-20 6 -23 14 -23 56 0 37 4 49 15 49 8 0 15 5 15 10 0 6 -9 10 -19 10 -11 0
-21 7 -23 15 -2 13 -5 13 -14 -2z"/>
<path d="M141 541 c-13 -23 3 -46 42 -60 43 -16 35 -41 -14 -41 -24 0 -38 -4
-34 -10 9 -14 68 -13 83 2 23 23 13 47 -28 68 -47 24 -44 40 6 40 21 0 33 4
29 10 -11 18 -73 12 -84 -9z"/>
<path d="M477 542 c-23 -25 -22 -85 1 -105 42 -38 102 -8 102 49 0 64 -64 99
-103 56z m71 -14 c17 -17 15 -63 -2 -78 -8 -6 -25 -10 -38 -8 -18 2 -24 10
-26 36 -2 19 -1 40 2 48 7 17 48 18 64 2z"/>
<path d="M1090 501 c0 -69 10 -81 68 -78 l42 1 0 68 c0 39 -4 68 -10 68 -5 0
-10 -20 -10 -44 0 -62 -7 -76 -41 -76 -29 0 -29 0 -29 60 0 33 -4 60 -10 60
-6 0 -10 -26 -10 -59z"/>
<path d="M1740 490 c0 -40 4 -70 10 -70 6 0 10 30 10 70 0 40 -4 70 -10 70 -6
0 -10 -30 -10 -70z"/>
<path d="M2017 542 c-23 -25 -22 -85 1 -105 42 -38 102 -8 102 49 0 64 -64 99
-103 56z m71 -14 c17 -17 15 -63 -2 -78 -8 -6 -25 -10 -38 -8 -18 2 -24 10
-26 36 -2 19 -1 40 2 48 7 17 48 18 64 2z"/>
<path d="M2360 488 c0 -39 4 -68 10 -68 6 0 10 21 10 48 0 58 10 75 41 70 22
-3 24 -9 27 -60 4 -76 22 -75 22 1 0 69 -11 82 -68 78 l-42 -2 0 -67z"/>
</g>
</svg>
